<svg width="327" height="53" viewBox="0 0 327 53" fill="none" xmlns="http://www.w3.org/2000/svg">
<rect width="327" height="53" rx="12" fill="#FEE500"/>
<g clip-path="url(#clip0_4305_31711)">
<path opacity="0.902" fill-rule="evenodd" clip-rule="evenodd" d="M97 18.4443C92.29 18.4443 88 22.2303 88 25.4333C88 27.8333 89.558 29.9503 91.931 31.2083L90.933 34.8743C90.844 35.1993 91.213 35.4573 91.496 35.2703L95.873 32.3653C96.242 32.4013 96.618 32.4223 97 32.4223C101.97 32.4223 106 29.2933 106 25.4333C106 22.2303 101.97 18.4443 97 18.4443Z" fill="black"/>
</g>
<path d="M123.323 32V20.6875H125.042V26.0781H125.183L129.917 20.6875H132.073L127.511 25.7812L132.089 32H130.011L126.37 26.9531L125.042 28.4844V32H123.323ZM132.804 29.6094C132.804 27.6719 134.445 27.1719 135.976 27.0625C136.538 27.0234 137.812 26.9531 138.21 26.9375L138.195 26.2656C138.195 25.3125 137.617 24.75 136.476 24.75C135.492 24.75 134.898 25.2031 134.726 25.8281H133.07C133.226 24.4219 134.538 23.4062 136.538 23.4062C137.882 23.4062 139.867 23.9062 139.867 26.3594V32H138.242V30.8438H138.179C137.851 31.4844 137.07 32.1875 135.663 32.1875C134.054 32.1875 132.804 31.2656 132.804 29.6094ZM134.429 29.625C134.429 30.4375 135.101 30.8594 136.038 30.8594C137.398 30.8594 138.21 29.9531 138.21 28.9375V28.1562L136.21 28.2969C135.117 28.375 134.429 28.7812 134.429 29.625ZM141.722 32V20.6875H143.394V27.0938H143.535L146.894 23.5156H148.894L145.472 27.1562L149.128 32H147.082L144.207 28.1875L143.394 28.9844V32H141.722ZM149.656 29.6094C149.656 27.6719 151.297 27.1719 152.828 27.0625C153.39 27.0234 154.664 26.9531 155.062 26.9375L155.047 26.2656C155.047 25.3125 154.468 24.75 153.328 24.75C152.343 24.75 151.75 25.2031 151.578 25.8281H149.922C150.078 24.4219 151.39 23.4062 153.39 23.4062C154.734 23.4062 156.718 23.9062 156.718 26.3594V32H155.093V30.8438H155.031C154.703 31.4844 153.922 32.1875 152.515 32.1875C150.906 32.1875 149.656 31.2656 149.656 29.6094ZM151.281 29.625C151.281 30.4375 151.953 30.8594 152.89 30.8594C154.25 30.8594 155.062 29.9531 155.062 28.9375V28.1562L153.062 28.2969C151.968 28.375 151.281 28.7812 151.281 29.625ZM162.168 32.1719C159.762 32.1719 158.199 30.4219 158.199 27.7969C158.199 25.1562 159.762 23.4062 162.168 23.4062C164.558 23.4062 166.121 25.1562 166.121 27.7969C166.121 30.4219 164.558 32.1719 162.168 32.1719ZM162.168 30.7812C163.699 30.7812 164.433 29.4219 164.433 27.7969C164.433 26.1719 163.699 24.7812 162.168 24.7812C160.605 24.7812 159.871 26.1719 159.871 27.7969C159.871 29.4219 160.605 30.7812 162.168 30.7812ZM179.914 30.4062V31.6562H167.102V30.4062H172.742V27.9531H168.664V23.5H176.883V21.5312H168.633V20.3125H178.352V24.6875H170.133V26.7344H178.68V27.9531H174.211V30.4062H179.914ZM189.657 22.8906C189.641 25.4531 191.188 28.0156 193.36 28.9844L192.469 30.1562C190.86 29.3906 189.586 27.8203 188.938 25.9062C188.282 27.9531 186.993 29.6484 185.313 30.4688L184.407 29.2188C186.61 28.2344 188.157 25.5625 188.157 22.8906V20.5H189.657V22.8906ZM196.11 19.3281V33.3594H194.625V19.3281H196.11ZM203.075 21.8438C203.075 23.625 204.309 25.3281 206.45 26.0469L205.7 27.2031C204.114 26.6562 202.95 25.5625 202.34 24.1875C201.731 25.7031 200.52 26.8906 198.872 27.4688L198.075 26.3125C200.262 25.5625 201.575 23.7656 201.59 21.8281V21.4531H198.512V20.25H206.09V21.4531H203.075V21.8438ZM209.184 19.3281V22.9219H211.215V24.1719H209.184V27.7656H207.7V19.3281H209.184ZM209.184 28.4531V33.3281H207.7V29.6562H199.934V28.4531H209.184ZM222.758 19.3281V25H225.008V26.2344H222.758V33.3281H221.29V19.3281H222.758ZM220.071 21.5156V22.7344H211.774V21.5156H215.227V19.5156H216.712V21.5156H220.071ZM215.977 23.7656C217.977 23.7656 219.446 25.1094 219.462 27.0156C219.446 28.9375 217.977 30.2656 215.977 30.2812C213.962 30.2656 212.493 28.9375 212.493 27.0156C212.493 25.1094 213.962 23.7656 215.977 23.7656ZM215.977 24.9844C214.79 24.9844 213.899 25.8125 213.915 27.0156C213.899 28.2344 214.79 29.0469 215.977 29.0312C217.165 29.0469 218.04 28.2344 218.04 27.0156C218.04 25.8125 217.165 24.9844 215.977 24.9844ZM237.161 19.3281V33.3281H235.661V19.3281H237.161ZM232.989 20.8281C232.989 24.9219 231.239 28.4844 226.442 30.7812L225.661 29.5781C229.387 27.8047 231.2 25.2812 231.489 22.0156H226.333V20.8281H232.989Z" fill="black"/>
<defs>
<clipPath id="clip0_4305_31711">
<rect width="18" height="18" fill="white" transform="translate(88 17.5)"/>
</clipPath>
</defs>
</svg>
