<svg width="25" height="24" viewBox="0 0 25 24" fill="none" xmlns="http://www.w3.org/2000/svg">
<path d="M12.375 3C17.3456 3 21.375 7.02944 21.375 12C21.375 16.9706 17.3456 21 12.375 21C7.40444 21 3.375 16.9706 3.375 12C3.375 7.02944 7.40444 3 12.375 3Z" fill="white" fill-opacity="0.1"/>
<path d="M13.375 6.5L13.1414 14.4076H11.6524L11.375 6.5H13.375ZM12.4115 15.7349C12.937 15.7349 13.302 16.0879 13.302 16.6104C13.302 17.1329 12.937 17.5 12.4115 17.5C11.8714 17.5 11.4918 17.1329 11.4918 16.6104C11.4918 16.0879 11.8714 15.7349 12.4115 15.7349Z" fill="#E03130"/>
</svg>
