<svg width="56" height="56" viewBox="0 0 56 56" fill="none" xmlns="http://www.w3.org/2000/svg">
<path d="M24.6455 5.34375C37.4294 3.20791 46.6303 11.6881 47.0479 12.085V12.0859C54.5639 19.2468 54.0412 28.0089 53.9629 30.5049V30.5186L53.9619 30.5322C53.8957 31.3038 53.8271 34.2433 52.7842 37.5381C51.7396 40.8379 49.701 44.5533 45.6592 46.8662C44.5413 47.5059 41.9982 49.3883 36.6748 50.165C26.9807 51.5798 20.1972 51.1561 14.8965 49.1982C12.4996 48.3135 6.49925 45.6248 3.57031 39.5957C1.25061 34.8195 2.04534 30.387 2.55371 27.5273C2.85034 25.8557 3.89585 20.9827 7.82715 16C9.71384 13.6086 14.9475 6.96469 24.6455 5.34473V5.34375Z" fill="#C8E6F4" stroke="#598FB0"/>
<path d="M44.5123 30.3632C45.1901 29.9253 45.2038 29.6859 45.1798 29.2644C45.1558 28.843 44.4845 28.5442 43.8623 28.5665C43.2401 28.5887 40.2698 29.5708 38.1103 28.9969C36.2729 28.5086 34.5373 26.8365 34.0257 26.5C33.5658 26.1974 32.9327 26.1711 32.5291 26.5015C32.1256 26.8319 32.0295 27.5015 32.5299 28.0014C33.0304 28.5012 35.0105 30.4486 37.5244 30.9753C40.0353 31.5014 43.8345 30.8011 44.5123 30.3632Z" fill="#598FB0"/>
<path d="M11.3554 30.3632C10.6776 29.9253 10.6639 29.6859 10.6879 29.2644C10.7118 28.843 11.3832 28.5442 12.0054 28.5665C12.6275 28.5887 15.5978 29.5708 17.7573 28.9969C19.5948 28.5086 21.3304 26.8365 21.842 26.5C22.3019 26.1974 22.9349 26.1711 23.3385 26.5015C23.7421 26.8319 23.8382 27.5015 23.3378 28.0014C22.8373 28.5012 20.8571 30.4486 18.3433 30.9753C15.8324 31.5014 12.0331 30.8011 11.3554 30.3632Z" fill="#598FB0"/>
<path d="M10.5065 39.2298C10.5067 36.3456 13.0539 32.5 13.5999 32.5C14.5097 32.5 16.5114 36.5379 16.5114 39.2298C16.5114 40.9828 15.2581 42.4455 13.5999 42.4986C11.8922 42.5532 10.5063 41.0351 10.5065 39.2298Z" fill="#598FB0"/>
<path d="M22.5164 36.5C22.5164 36.5 25.4803 35.5 28.0208 35.5C30.7127 35.5 33.5253 36.5 33.5253 36.5" stroke="#598FB0" stroke-width="2.1" stroke-linecap="round"/>
<ellipse cx="1.793" cy="1.15826" rx="1.793" ry="1.15826" transform="matrix(0.422251 -0.906479 0.906742 0.421685 11.0392 36.5723)" fill="url(#paint0_linear_6121_56954)" fill-opacity="0.5"/>
<defs>
<linearGradient id="paint0_linear_6121_56954" x1="1.793" y1="0" x2="1.793" y2="2.31651" gradientUnits="userSpaceOnUse">
<stop stop-color="#7AA8C5"/>
<stop offset="1" stop-color="#5182A1"/>
</linearGradient>
</defs>
</svg>
