<svg width="16" height="16" viewBox="0 0 16 16" fill="none" xmlns="http://www.w3.org/2000/svg">
<path d="M8 2C11.3137 2 14 4.68629 14 8C14 11.3137 11.3137 14 8 14C4.68629 14 2 11.3137 2 8C2 4.68629 4.68629 2 8 2Z" fill="white" fill-opacity="0.1"/>
<path d="M8.66683 4.33337L8.51111 9.60509H7.51841L7.3335 4.33337H8.66683ZM8.02449 10.49C8.37486 10.49 8.61817 10.7253 8.61817 11.0736C8.61817 11.4219 8.37486 11.6667 8.02449 11.6667C7.6644 11.6667 7.41136 11.4219 7.41136 11.0736C7.41136 10.7253 7.6644 10.49 8.02449 10.49Z" fill="#A6A6A6"/>
</svg>
