<svg width="24" height="24" viewBox="0 0 24 24" fill="none" xmlns="http://www.w3.org/2000/svg">
<path d="M12.0444 3.76482L12.0455 2.90075M12.0444 3.76482C13.4295 3.81885 14.9467 4.46489 15.9044 5.467C16.8622 6.46912 17.3929 8.30449 17.3841 9.69058L17.3836 11.4903C17.3843 13.8762 19.2492 14.4729 19.2465 15.6658C19.2467 16.262 19.2471 16.8573 18.7077 16.858L5.22833 16.8991C4.69011 16.899 4.69014 16.3017 4.68994 15.7055C4.69052 14.5132 6.55733 13.9168 6.55867 11.5313C6.55869 10.3419 6.55897 12.7135 6.56011 9.73175C6.55199 8.34572 7.08273 6.51065 8.04089 5.50908C8.99905 4.50751 10.6603 3.81835 12.0454 3.765L12.0444 3.76482ZM14.3011 20.1326C13.6528 20.5799 13.0418 20.7381 12.0858 20.7381C11.1297 20.7381 10.5564 20.362 9.97705 19.8283C9.39768 19.2947 8.66532 17.6792 8.54579 16.9006L16.0412 16.8574" stroke="#A16DFF" stroke-width="2" stroke-linecap="round" stroke-linejoin="round"/>
</svg>
