<svg width="24" height="24" viewBox="0 0 24 24" fill="none" xmlns="http://www.w3.org/2000/svg">
<path d="M10.9862 3.12943C14.7061 2.99529 17.917 5.66567 18.2842 8.99177C18.3459 9.55063 18.5567 10.0977 18.9816 10.4887L19.2957 10.7778C20.0583 11.4798 19.97 12.6653 19.111 13.2582C18.6176 13.5989 18.3574 14.164 18.3469 14.7433C18.3284 15.7628 18.123 17.3076 17.0926 17.743C16.9133 17.8187 16.7036 17.8632 16.4838 17.886C15.5491 17.9829 14.65 18.6047 14.65 19.4978C14.65 20.3461 13.8506 20.9927 12.969 20.8574L9.31242 20.2965C8.16545 20.1205 7.32238 19.18 7.32239 18.0764L7.32239 16.5473C7.32239 15.8803 6.99822 15.2587 6.5133 14.7763C4.86758 13.1391 3.87825 10.9454 4.26918 8.75002C4.84259 5.52992 7.44382 3.25716 10.9862 3.12943Z" fill="url(#paint0_linear_983_24443)" fill-opacity="0.5"/>
<path d="M6.13917 18.0759V16.5474C6.13917 16.2333 5.98314 15.8768 5.65711 15.5525C3.83133 13.7361 2.63247 11.2009 3.10235 8.56221C3.76671 4.83195 6.8234 2.15434 10.9412 2.00565C15.2688 1.8496 19.0281 4.94535 19.4621 8.87406C19.5049 9.26135 19.6398 9.52853 19.8054 9.68114L20.1199 9.96993C21.4103 11.1577 21.2611 13.1643 19.8077 14.1678C19.6655 14.2661 19.5367 14.4729 19.5315 14.763C19.5214 15.3176 19.4608 16.0776 19.2321 16.79C19.0124 17.4738 18.557 18.3545 17.5743 18.7698C17.247 18.9081 16.9073 18.9732 16.6126 19.0037C16.362 19.0298 16.134 19.1274 15.9895 19.2453C15.8559 19.3544 15.8346 19.4401 15.8346 19.4979C15.8346 21.0386 14.3817 22.2131 12.7804 21.9674L9.12397 21.4063C7.40359 21.1423 6.13917 19.7312 6.13917 18.0759ZM8.50666 18.0759C8.50666 18.6277 8.9285 19.098 9.50198 19.186L13.1584 19.7471C13.3201 19.7718 13.4671 19.6535 13.4671 19.4979C13.4671 17.7901 15.112 16.8971 16.3559 16.7681C16.5 16.7531 16.5798 16.7286 16.6114 16.7154C16.6589 16.6953 16.8222 16.5864 16.9674 16.1345C17.1035 15.711 17.1555 15.1882 17.164 14.7235C17.1799 13.8551 17.5716 12.9312 18.4159 12.3483C18.6798 12.1658 18.7071 11.8011 18.4726 11.5852L18.1581 11.2964C17.4742 10.6669 17.188 9.83933 17.1073 9.10905C16.8067 6.38576 14.1435 4.14117 11.0314 4.25339C8.06484 4.36042 5.91882 6.22813 5.43632 8.93775C5.12449 10.6895 5.90493 12.5421 7.37031 13.9998C8.014 14.6403 8.50666 15.5276 8.50666 16.5474V18.0759Z" fill="#A16DFF"/>
<path d="M10.6944 12.12V11.2206C10.6944 10.9362 10.8452 10.6739 11.0898 10.519L11.1996 10.4597L11.2066 10.4564C11.2151 10.4523 11.23 10.4451 11.2493 10.4355C11.2881 10.4164 11.3463 10.3874 11.4169 10.3488C11.5605 10.2703 11.7467 10.1588 11.9279 10.0259C12.1132 9.89002 12.2654 9.75052 12.3649 9.62186C12.466 9.491 12.4701 9.42684 12.4701 9.42091C12.4698 8.84122 12.0194 8.46559 11.5823 8.46559C11.1451 8.46559 10.6947 8.84121 10.6944 9.42091C10.6944 9.88666 10.297 10.2642 9.80663 10.2642C9.31631 10.2642 8.91882 9.88666 8.91882 9.42091C8.91906 8.01384 10.0583 6.77897 11.5823 6.77896C13.1062 6.77896 14.2454 8.01384 14.2457 9.42091C14.2457 9.91178 14.0276 10.3217 13.796 10.6211C13.5626 10.9228 13.2707 11.1716 13.0122 11.3612C12.8213 11.5012 12.6314 11.6173 12.4701 11.7115V12.12C12.4701 12.5857 12.0726 12.9633 11.5823 12.9633C11.0919 12.9633 10.6944 12.5857 10.6944 12.12Z" fill="#FFCD54"/>
<circle cx="11.5823" cy="14.6499" r="0.865277" fill="#FFCD54"/>
<defs>
<linearGradient id="paint0_linear_983_24443" x1="12.4702" y1="3.12459" x2="12.4702" y2="21.1153" gradientUnits="userSpaceOnUse">
<stop stop-color="#A16DFF"/>
<stop offset="1" stop-color="#A16DFF" stop-opacity="0"/>
</linearGradient>
</defs>
</svg>
