<svg width="80" height="80" viewBox="0 0 80 80" fill="none" xmlns="http://www.w3.org/2000/svg">
<g clip-path="url(#clip0_3015_27564)">
<path d="M53.4667 73.9505C72.0224 66.7076 81.1933 45.7937 73.9504 27.238C66.7075 8.6823 45.7936 -0.48855 27.2379 6.75433C8.68222 13.9972 -0.488632 34.9111 6.75425 53.4668C13.9971 72.0225 34.911 81.1934 53.4667 73.9505ZM54.4886 76.5685C34.487 84.3758 11.9435 74.4903 4.13622 54.4887C-3.67104 34.4871 6.21442 11.9436 26.216 4.1363C46.2176 -3.67096 68.7612 6.2145 76.5684 26.2161C84.3757 46.2177 74.4902 68.7612 54.4886 76.5685Z" fill="#9162E6"/>
<path d="M49.6916 16.8879C48.642 14.199 45.6109 12.8701 42.9216 13.9199C41.149 14.6118 39.9656 16.164 39.6672 17.9183C39.564 18.5257 39.0772 18.9956 38.4665 19.0765C37.8556 19.1572 37.2635 18.8304 37.0059 18.2707C35.8584 15.7776 32.9506 14.5809 30.3605 15.5919C27.7707 16.6028 26.4418 19.4524 27.2856 22.0629C27.4751 22.649 27.261 23.2907 26.7571 23.645C26.2532 23.9992 25.577 23.984 25.0896 23.6075C23.7698 22.5879 21.9993 22.2252 20.3232 22.7535L19.9891 22.8712C17.2997 23.9209 15.9704 26.9517 17.0199 29.6407C17.5708 31.0521 18.6665 32.0873 19.9774 32.6031C20.3305 32.7422 20.6128 33.0182 20.7592 33.3684C20.9057 33.7186 20.9044 34.1138 20.7554 34.4629C19.1008 38.3379 18.62 42.6492 19.5514 46.8542C19.7049 47.5475 19.3167 48.2463 18.6472 48.4829C18.5643 48.5121 18.5057 48.5332 18.4512 48.5544C15.5856 49.6732 14.3808 52.394 15.1624 54.3969C15.9442 56.3998 18.6736 57.585 21.5396 56.4665C21.9311 56.3137 22.2974 56.1253 22.6359 55.9089L22.7448 55.8458C23.3003 55.5567 23.9878 55.6694 24.4212 56.1352C26.8706 58.7685 29.9935 60.7032 33.4491 61.7878C34.0766 61.9847 34.4836 62.5904 34.4287 63.2458C34.357 64.1007 34.4785 65.0239 34.8333 65.9329L34.9431 66.1965C36.1217 68.8717 38.7355 69.9789 40.6758 69.2217C42.4063 68.5462 43.5132 66.4576 43.0747 64.0153L43.0568 63.874C43.0023 63.1696 43.4845 62.5226 44.1929 62.3866C45.5286 62.1301 46.8623 61.7512 48.1776 61.2378L48.564 61.0831C49.4597 60.7146 50.3185 60.2947 51.1388 59.8296L51.2611 59.7681C51.8803 59.4921 52.619 59.6977 53.002 60.2729C54.3437 62.2884 56.5244 63.0354 58.2265 62.3711C60.1668 61.6137 61.3394 59.0287 60.3939 56.2622L60.2961 55.994C60.0064 55.2518 59.5948 54.6075 59.1086 54.0789C58.6795 53.6125 58.6159 52.9164 58.9531 52.3797C61.0333 49.0689 62.1752 45.2635 62.1944 41.3911L62.2005 41.266C62.2591 40.6424 62.7276 40.1264 63.3543 40.0152C63.7498 39.9451 64.1473 39.8353 64.5394 39.6823L64.8029 39.5725C67.4784 38.3939 68.5855 35.7801 67.8282 33.8398C67.0707 31.8996 64.4855 30.727 61.7193 31.6724L61.451 31.7702C61.3961 31.7917 61.3381 31.8162 61.2575 31.8507C60.6048 32.1303 59.8459 31.8792 59.4891 31.2652C57.3256 27.5413 54.051 24.6969 50.2085 22.9674C49.8623 22.8116 49.5937 22.5218 49.4642 22.1649C49.3347 21.8079 49.3559 21.4136 49.5217 21.072C50.1375 19.8035 50.2425 18.2993 49.6916 16.8879ZM52.3097 15.866C52.973 17.5654 53.0126 19.3525 52.5496 20.9792C56.0546 22.7946 59.0953 25.4702 61.307 28.8626C65.0118 27.8417 69.0677 29.2869 70.4462 32.8179C71.8879 36.5114 69.6298 40.5123 65.9247 42.1496L65.5613 42.3003C65.3655 42.3767 65.1683 42.4434 64.9714 42.505C64.7754 46.2003 63.6871 49.7942 61.8487 53.0074C62.2725 53.5998 62.6349 54.2568 62.9141 54.9721L63.0495 55.3415C64.3551 59.1761 62.9419 63.5474 59.2484 64.9891C56.4427 66.0842 53.4327 65.0265 51.4543 62.8471C50.8633 63.1461 50.2564 63.4253 49.6333 63.6816L49.1995 63.8559C48.1328 64.2722 47.0553 64.609 45.9746 64.873C46.0351 67.8581 44.5396 70.7304 41.6977 71.8397C37.8852 73.3277 33.7451 70.8735 32.2153 66.9548C31.8512 66.022 31.6535 65.066 31.609 64.1284C28.4442 62.9823 25.5454 61.1898 23.1337 58.8346C22.9471 58.9227 22.7572 59.0081 22.5615 59.0845C18.6426 60.614 14.0326 59.2315 12.5444 55.4188C11.1665 51.8882 13.1699 48.078 16.5857 46.3187C15.9142 42.3252 16.3371 38.296 17.6853 34.5859C16.244 33.7025 15.0646 32.3604 14.4019 30.6626C12.7879 26.5273 14.8323 21.8671 18.9672 20.2531C20.7198 19.5691 22.5659 19.5436 24.2337 20.0536C24.3906 16.9931 26.2986 14.1605 29.3386 12.9738C32.379 11.7871 35.7 12.5795 37.8884 14.7247C38.7698 13.2186 40.1462 11.9863 41.8997 11.3018C46.0345 9.68789 50.6954 11.7308 52.3097 15.866Z" fill="#9162E6"/>
<path d="M38.5471 45.5824C39.2055 47.2693 38.9579 48.9418 37.9939 49.3181C37.03 49.6943 35.7148 48.6319 35.0564 46.945C34.3979 45.2581 34.6456 43.5856 35.6095 43.2093C36.5734 42.8331 37.8886 43.8956 38.5471 45.5824Z" fill="#9162E6"/>
<path d="M48.1464 41.8355C48.8049 43.5223 48.5572 45.1948 47.5933 45.5711C46.6294 45.9474 45.3142 44.8849 44.6557 43.198C43.9973 41.5111 44.2449 39.8386 45.2089 39.4624C46.1728 39.0861 47.488 40.1486 48.1464 41.8355Z" fill="#9162E6"/>
<path d="M54.5212 38.8444C52.4646 33.5754 45.0513 30.976 37.5138 33.9181C29.9763 36.8602 26.2843 43.7944 28.3409 49.0634C30.3976 54.3324 37.8109 56.9318 45.3484 53.9897C52.8859 51.0475 56.5779 44.1134 54.5212 38.8444ZM57.1393 37.8225C59.9739 45.0846 54.7377 53.3416 46.3703 56.6077C38.0029 59.8738 28.5575 57.3474 25.7229 50.0853C22.8882 42.8232 28.1245 34.5661 36.4919 31.3001C44.8593 28.034 54.3046 30.5603 57.1393 37.8225Z" fill="#9162E6"/>
</g>
<defs>
<clipPath id="clip0_3015_27564">
<rect width="80" height="80" fill="white"/>
</clipPath>
</defs>
</svg>
