<svg width="53" height="48" viewBox="0 0 53 48" fill="none" xmlns="http://www.w3.org/2000/svg">
<path d="M23.1455 1.34375C35.9294 -0.792094 45.1303 7.68806 45.5479 8.08496V8.08594C53.0639 15.2468 52.5412 24.0089 52.4629 26.5049V26.5186L52.4619 26.5322C52.3957 27.3038 52.3271 30.2433 51.2842 33.5381C50.2396 36.8379 48.201 40.5533 44.1592 42.8662C43.0413 43.5059 40.4982 45.3883 35.1748 46.165C25.4807 47.5798 18.6972 47.1561 13.3965 45.1982C10.9997 44.3135 4.99925 41.6248 2.07031 35.5957C-0.249385 30.8195 0.545339 26.387 1.05371 23.5273C1.35034 21.8557 2.39584 16.9827 6.32715 12C8.21384 9.60858 13.4475 2.96469 23.1455 1.34473V1.34375Z" fill="#F8E2C6" stroke="#AA9070"/>
<path d="M26.5873 32.6818C27.1678 32.6818 27.7418 32.6873 28.2308 32.7492C28.7447 32.8143 29.0457 32.9295 29.1791 33.0558C29.3191 33.1886 29.4148 33.3914 29.4681 33.7121C29.5225 34.0391 29.5238 34.4235 29.5238 34.882C29.5238 34.9407 29.5021 35.1291 29.4437 35.4582C29.3883 35.771 29.3067 36.1755 29.2035 36.6398C28.9971 37.5687 28.7064 38.7267 28.3715 39.8557C28.0352 40.9889 27.6588 42.0748 27.2845 42.8693C27.0963 43.269 26.9198 43.5708 26.7631 43.7648C26.6747 43.8742 26.6151 43.9215 26.5853 43.9416C26.5548 43.9218 26.4931 43.8748 26.4008 43.7639C26.2407 43.5714 26.0589 43.272 25.8646 42.8762C25.4786 42.0894 25.0872 41.0132 24.7347 39.8869C24.3835 38.7646 24.0763 37.6107 23.8578 36.6779C23.7485 36.2116 23.6627 35.8034 23.6039 35.4846C23.5423 35.1506 23.518 34.9524 23.5179 34.882C23.5177 33.9616 23.5237 33.5086 24.0228 33.0353C24.1548 32.9102 24.4476 32.7994 24.9535 32.7394C25.4364 32.6823 26.0027 32.6818 26.5873 32.6818Z" fill="#AA9070" stroke="#AA9070"/>
<path d="M30.0057 23.5134C30.6124 23.4544 31.3101 23.4671 31.9852 23.5612C32.8477 23.6815 33.4294 23.9768 34.0253 24.3581C34.6151 24.7356 35.2844 25.2478 36.204 25.6775C37.4663 26.2673 37.8534 26.66 39.3612 27.03C40.0999 27.2112 40.9207 27.3676 41.5526 27.4782C41.8692 27.5337 42.1407 27.5777 42.3329 27.6081C42.4289 27.6233 42.5059 27.6353 42.5585 27.6433C42.5848 27.6473 42.6051 27.651 42.619 27.653C42.6257 27.654 42.631 27.6545 42.6346 27.655C42.6365 27.6553 42.6386 27.6558 42.6395 27.656H42.6405L42.6708 27.6599L42.7001 27.6609H42.705C42.7087 27.661 42.7149 27.6616 42.7225 27.6618C42.7378 27.6623 42.7607 27.6627 42.7899 27.6638C42.8488 27.666 42.9339 27.6701 43.036 27.6755C43.2409 27.6864 43.5128 27.7045 43.785 27.7331C43.9776 27.7533 44.1614 27.7774 44.3182 27.8064C44.2094 27.9194 44.071 28.0509 43.9052 28.1931C43.4184 28.6103 42.7589 29.0832 42.1346 29.4499C40.8765 30.189 38.6661 31.0835 37.2723 31.3298C35.8492 31.5812 33.9296 31.6814 32.0546 31.6814C30.6322 31.6814 29.733 31.5941 28.5946 30.9157C28.1094 30.6266 27.7848 30.4265 27.5204 30.1853C27.2693 29.9561 27.0592 29.6757 26.8514 29.2165C26.6004 28.6616 26.5089 28.1874 26.5214 27.7155C26.5341 27.2345 26.6556 26.7286 26.869 26.1071C27.0706 25.5202 27.2723 25.1107 27.5341 24.7771C27.794 24.4458 28.1351 24.1615 28.6532 23.8571C28.9138 23.7041 29.3854 23.5738 30.0057 23.5134Z" fill="#AA9070" stroke="#AA9070"/>
<path d="M23.2439 23.5124C22.6745 23.4539 22.0191 23.4668 21.3845 23.5603C20.5785 23.679 20.0338 23.971 19.4714 24.3513C18.9158 24.727 18.2782 25.2424 17.405 25.6736C16.2181 26.2597 15.8417 26.6566 14.4089 27.028C13.7057 27.2104 12.8956 27.3676 12.2673 27.4782C11.9523 27.5337 11.6804 27.5776 11.4871 27.6081C11.3903 27.6234 11.3127 27.6353 11.2595 27.6433C11.2329 27.6473 11.2121 27.651 11.198 27.653C11.1913 27.654 11.186 27.6545 11.1824 27.655C11.1805 27.6553 11.1785 27.6558 11.1775 27.656H11.1765L11.1482 27.6599L11.1189 27.6609H11.115C11.1117 27.661 11.1062 27.6616 11.0994 27.6618C11.0857 27.6623 11.0649 27.6627 11.0388 27.6638C10.9862 27.666 10.9103 27.6702 10.8191 27.6755C10.6354 27.6863 10.3924 27.7038 10.1492 27.7321C9.98844 27.7509 9.83635 27.7757 9.70483 27.8015C9.81072 27.9174 9.94741 28.0533 10.1121 28.2009C10.5771 28.6178 11.2056 29.0895 11.7957 29.4558C12.3704 29.8126 13.3171 30.2462 14.2419 30.614C15.1737 30.9845 16.0172 31.2624 16.3835 31.3308C18.2617 31.6813 19.7206 31.6814 21.2927 31.6814H21.3113C22.8465 31.6814 23.7287 31.5085 24.6609 30.9216C25.1862 30.5908 25.4575 30.3975 25.656 30.1823C25.8466 29.9756 25.9934 29.7224 26.2058 29.2263C26.6685 28.1454 26.5863 27.3184 26.1902 26.0993C25.9989 25.5107 25.8072 25.1002 25.5593 24.7663C25.3139 24.4359 24.9932 24.153 24.5056 23.8503C24.2661 23.7016 23.8274 23.5724 23.2439 23.5124Z" fill="#AA9070" stroke="#AA9070"/>
<path d="M18.4825 14.0514C21.7862 14.0514 24.5235 16.5293 25.0128 19.7653H26.3624V22.1031H24.9679C24.3753 25.2113 21.6974 27.5573 18.4825 27.5573C14.8331 27.5571 11.8741 24.5337 11.8741 20.8043C11.8744 17.0751 14.8332 14.0515 18.4825 14.0514ZM18.6105 15.8698C16.014 15.8699 13.9086 18.0211 13.9083 20.6744C13.9083 23.328 16.0138 25.48 18.6105 25.4801C21.2073 25.4801 23.3126 23.3281 23.3126 20.6744C23.3123 18.021 21.2071 15.8698 18.6105 15.8698Z" fill="#AA9070"/>
<path d="M34.2405 14.0514C30.937 14.0516 28.2004 16.5294 27.7112 19.7653H26.3625V22.1031H27.7561C28.3485 25.2112 31.0258 27.5571 34.2405 27.5573C37.8901 27.5573 40.8489 24.5338 40.8489 20.8043C40.8486 17.075 37.8899 14.0514 34.2405 14.0514ZM34.1135 15.8698C36.7102 15.8698 38.8154 18.021 38.8157 20.6744C38.8157 23.3281 36.7103 25.4801 34.1135 25.4801C31.5169 25.4798 29.4124 23.328 29.4124 20.6744C29.4127 18.0212 31.5171 15.87 34.1135 15.8698Z" fill="#AA9070"/>
<ellipse cx="2.15687" cy="1.15077" rx="2.15687" ry="1.15077" transform="matrix(0.930032 -0.367479 0.35389 0.935287 14.9498 16.9787)" fill="url(#paint0_linear_6121_54026)" fill-opacity="0.5"/>
<ellipse cx="2.15794" cy="1.15048" rx="2.15794" ry="1.15048" transform="matrix(0.930032 -0.367479 0.35389 0.935287 30.4449 16.9897)" fill="url(#paint1_linear_6121_54026)" fill-opacity="0.5"/>
<defs>
<linearGradient id="paint0_linear_6121_54026" x1="2.15687" y1="0" x2="2.15687" y2="2.30154" gradientUnits="userSpaceOnUse">
<stop stop-color="#FFEEDA"/>
<stop offset="1" stop-color="#E4D0B7"/>
</linearGradient>
<linearGradient id="paint1_linear_6121_54026" x1="2.15794" y1="0" x2="2.15794" y2="2.30095" gradientUnits="userSpaceOnUse">
<stop stop-color="#FFEEDA"/>
<stop offset="1" stop-color="#E4D0B7"/>
</linearGradient>
</defs>
</svg>
