<svg width="24" height="24" viewBox="0 0 24 24" fill="none" xmlns="http://www.w3.org/2000/svg">
<path d="M21 13V20C21 20.5523 20.5523 21 20 21H16.2808C15.6302 21 15.142 20.3856 15.2356 19.7418C15.5629 17.4891 15.7454 13 12 13C8.25455 13 8.43705 17.4891 8.76443 19.7418C8.85799 20.3856 8.36979 21 7.71922 21H4C3.44772 21 3 20.5523 3 20V9.42329C3 9.0857 3.17032 8.7709 3.45291 8.58621L11.4474 3.36114C11.7826 3.14209 12.2161 3.14407 12.5492 3.36616L16.5 6L21 9" stroke="#9C79DE" stroke-width="2" stroke-linecap="round" stroke-linejoin="round"/>
</svg>
