<svg width="16" height="16" viewBox="0 0 16 16" fill="none" xmlns="http://www.w3.org/2000/svg">
<path d="M8 2C11.3137 2 14 4.68629 14 8C14 11.3137 11.3137 14 8 14C4.68629 14 2 11.3137 2 8C2 4.68629 4.68629 2 8 2Z" fill="#08A2FA"/>
<path d="M11.0896 5.17574C11.2979 4.94142 11.6355 4.94142 11.8438 5.17574C12.0521 5.41006 12.0521 5.78987 11.8438 6.02419L7.57708 10.8243C7.3688 11.0586 7.03119 11.0586 6.8229 10.8243L4.15621 7.82422C3.94793 7.5899 3.94793 7.21008 4.15621 6.97577C4.36449 6.74145 4.7021 6.74145 4.91039 6.97577L7.19999 9.55159L11.0896 5.17574Z" fill="white"/>
</svg>
