<svg width="24" height="24" viewBox="0 0 24 24" fill="none" xmlns="http://www.w3.org/2000/svg">
<path d="M12 3C16.9706 3 21 7.02944 21 12C21 16.9706 16.9706 21 12 21C7.02944 21 3 16.9706 3 12C3 7.02944 7.02944 3 12 3Z" fill="black"/>
<path d="M15.5771 7.24414C15.9025 6.9187 16.4304 6.9187 16.7558 7.24414C17.0812 7.56959 17.0812 8.09743 16.7558 8.42285L13.1787 12L16.7558 15.5771C17.0812 15.9026 17.0812 16.4304 16.7558 16.7559C16.4304 17.0813 15.9025 17.0813 15.5771 16.7559L11.9999 13.1787L8.42279 16.7559C8.09737 17.0813 7.56953 17.0812 7.24408 16.7559C6.91864 16.4304 6.91864 15.9026 7.24408 15.5771L10.8212 12L7.24408 8.42285C6.91864 8.09741 6.91864 7.56958 7.24408 7.24414C7.56952 6.9187 8.09735 6.9187 8.42279 7.24414L11.9999 10.8213L15.5771 7.24414Z" fill="white"/>
</svg>
