<svg width="24" height="24" viewBox="0 0 24 24" fill="none" xmlns="http://www.w3.org/2000/svg">
<path d="M12 3C16.9706 3 21 7.02944 21 12C21 16.9706 16.9706 21 12 21C7.02944 21 3 16.9706 3 12C3 7.02944 7.02944 3 12 3Z" fill="black"/>
<path d="M16.6344 8.23432C16.9468 7.92189 17.4533 7.92189 17.7657 8.23432C18.0781 8.54674 18.0781 9.05316 17.7657 9.36559L11.3656 15.7657C11.0532 16.0781 10.5468 16.0781 10.2344 15.7657L6.23432 11.7656C5.92189 11.4532 5.92189 10.9468 6.23432 10.6344C6.54674 10.3219 7.05316 10.3219 7.36558 10.6344L10.8 14.0688L16.6344 8.23432Z" fill="white"/>
</svg>
