<svg width="24" height="24" viewBox="0 0 24 24" fill="none" xmlns="http://www.w3.org/2000/svg">
<path d="M19 13V20C19 20.5523 18.5523 21 18 21H4C3.44772 21 3 20.5523 3 20V6C3 5.44772 3.44772 5 4 5H11" stroke="white" stroke-width="1.7" stroke-linecap="round" stroke-linejoin="round"/>
<path d="M17.6662 3.57198C18.0325 3.20575 18.5292 3 19.0471 3C19.5651 3 20.0618 3.20575 20.428 3.57198C20.7943 3.93822 21 4.43494 21 4.95287C21 5.47081 20.7943 5.96753 20.428 6.33376L11.6824 15.0794L8 16L8.92059 12.3176L17.6662 3.57198Z" stroke="white" stroke-width="1.7" stroke-linecap="round" stroke-linejoin="round"/>
</svg>
