<svg width="200" height="48" viewBox="0 0 200 48" fill="none" xmlns="http://www.w3.org/2000/svg">
<path d="M186.047 2.09462C184.525 -0.69821 180.475 -0.698203 178.953 2.09463L173.488 12.1246C172.041 14.7796 173.986 18 177.035 18L187.965 18C191.014 18 192.959 14.7796 191.512 12.1246L186.047 2.09462Z" fill="#F6F0FF"/>
<rect y="12" width="200" height="36" rx="12" fill="#F6F0FF"/>
<path d="M35.8352 34.6445H24.6242V33.5645H29.5598V31.0488H25.9094V24.7461H27.2082V26.8516H33.2238V24.7461H34.509V31.0488H30.8449V33.5645H35.8352V34.6445ZM33.2238 29.9961V27.9043H27.2082V29.9961H33.2238ZM46.7557 36.1895H45.4569V23.9121H46.7557V36.1895ZM43.0096 29.4902H38.6073V32.1699C39.6828 32.1654 40.6694 32.1312 41.5672 32.0674C42.4696 32.0036 43.4061 31.8919 44.3768 31.7324L44.4998 32.7988C43.479 32.972 42.4878 33.0905 41.5262 33.1543C40.5692 33.2181 39.5005 33.25 38.3202 33.25H37.2811V28.4512H41.6834V26.0723H37.2674V25.0195H43.0096V29.4902ZM59.0845 36.1621H57.8403V23.9121H59.0845V36.1621ZM56.5962 35.5605H55.352V29.6543H53.9712C53.9347 30.4473 53.8026 31.1354 53.5747 31.7188C53.3468 32.3021 53.0392 32.751 52.6518 33.0654C52.2645 33.3753 51.8201 33.528 51.3188 33.5234C50.7902 33.528 50.3253 33.3548 49.9243 33.0039C49.5278 32.653 49.2202 32.1517 49.0014 31.5C48.7873 30.8438 48.6802 30.0781 48.6802 29.2031C48.6802 28.3281 48.7873 27.5648 49.0014 26.9131C49.2202 26.2614 49.5278 25.7624 49.9243 25.416C50.3253 25.0651 50.7902 24.8919 51.3188 24.8965C51.811 24.8919 52.2485 25.04 52.6313 25.3408C53.0141 25.637 53.3195 26.0654 53.5473 26.626C53.7798 27.182 53.9188 27.8405 53.9643 28.6016H55.352V24.1445H56.5962V35.5605ZM51.3188 26.1133C51.0226 26.1133 50.7674 26.2363 50.5532 26.4824C50.339 26.724 50.1727 27.0771 50.0542 27.542C49.9402 28.0023 49.8833 28.556 49.8833 29.2031C49.8833 29.8503 49.9402 30.4062 50.0542 30.8711C50.1727 31.3314 50.339 31.6846 50.5532 31.9307C50.7674 32.1722 51.0226 32.293 51.3188 32.293C51.6196 32.293 51.8794 32.1722 52.0981 31.9307C52.3169 31.6846 52.4855 31.3314 52.604 30.8711C52.7225 30.4062 52.7817 29.8503 52.7817 29.2031C52.7817 28.556 52.7225 28.0023 52.604 27.542C52.4855 27.0771 52.3169 26.724 52.0981 26.4824C51.8794 26.2363 51.6196 26.1133 51.3188 26.1133ZM74.2947 36.1621H73.0505V29.832H71.4646V35.5332H70.2752V24.1582H71.4646V28.7656H73.0505V23.9121H74.2947V36.1621ZM68.7849 26.4414H65.49V32.1152C66.2921 32.1061 66.9939 32.0788 67.5955 32.0332C68.2016 31.9876 68.8168 31.9056 69.4412 31.7871L69.5369 32.8535C68.8487 32.9948 68.1697 33.0905 67.4998 33.1406C66.8298 33.1862 66.0004 33.2135 65.0115 33.2227H64.1912V25.3887H68.7849V26.4414ZM81.7973 26.9883H75.7133V25.9355H78.1195V24.2676H79.4047V25.9355H81.7973V26.9883ZM78.7621 27.7266C79.2771 27.7266 79.7351 27.8473 80.1361 28.0889C80.5372 28.3258 80.8516 28.6585 81.0795 29.0869C81.3074 29.5107 81.4236 29.9961 81.4281 30.543C81.4236 31.0944 81.3074 31.5866 81.0795 32.0195C80.8516 32.4479 80.5372 32.7829 80.1361 33.0244C79.7351 33.266 79.2771 33.3867 78.7621 33.3867C78.2563 33.3867 77.8005 33.266 77.3949 33.0244C76.9893 32.7829 76.6726 32.4456 76.4447 32.0127C76.2169 31.5798 76.1052 31.0898 76.1098 30.543C76.1052 30.0007 76.2169 29.5153 76.4447 29.0869C76.6726 28.6585 76.9893 28.3258 77.3949 28.0889C77.8005 27.8473 78.2563 27.7266 78.7621 27.7266ZM78.7621 28.8066C78.4704 28.8066 78.2107 28.8818 77.9828 29.0322C77.755 29.1781 77.5772 29.3831 77.4496 29.6475C77.322 29.9118 77.2582 30.2103 77.2582 30.543C77.2582 30.8848 77.322 31.1878 77.4496 31.4521C77.5772 31.7119 77.755 31.9147 77.9828 32.0605C78.2107 32.2064 78.4704 32.2793 78.7621 32.2793C79.0538 32.2793 79.3135 32.2064 79.5414 32.0605C79.7738 31.9147 79.9538 31.7119 80.0814 31.4521C80.2136 31.1878 80.2797 30.8848 80.2797 30.543C80.2797 30.2103 80.2136 29.9118 80.0814 29.6475C79.9538 29.3831 79.7738 29.1781 79.5414 29.0322C79.309 28.8818 79.0492 28.8066 78.7621 28.8066ZM86.227 36.1621H84.9965V30.0781H83.5883V35.5879H82.3578V24.1855H83.5883V29.0117H84.9965V23.9121H86.227V36.1621ZM97.1989 26.127H92.8923V32.1016C93.986 32.097 94.9134 32.0674 95.6745 32.0127C96.4356 31.958 97.1989 31.8555 97.9645 31.7051L98.1149 32.7715C97.2627 32.931 96.4242 33.0404 95.5993 33.0996C94.7744 33.1543 93.7582 33.1816 92.5505 33.1816H91.5798V25.0469H97.1989V26.127ZM101.205 36.1895H99.9059V29.3672H96.5016V28.2871H99.9059V23.9121H101.205V36.1895ZM115.841 26.4688H117.618V27.5488H115.841V30.1055H114.542V23.9121H115.841V26.4688ZM115.841 33.7695H109.224V34.9727H116.265V36.0117H107.952V32.7988H114.556V31.6777H107.925V30.666H115.841V33.7695ZM109.62 24.3359C110.235 24.3359 110.787 24.4521 111.274 24.6846C111.762 24.917 112.143 25.2406 112.416 25.6553C112.694 26.07 112.833 26.5417 112.833 27.0703C112.833 27.599 112.694 28.0706 112.416 28.4854C112.143 28.9001 111.762 29.2236 111.274 29.4561C110.787 29.6885 110.235 29.8047 109.62 29.8047C109.005 29.8047 108.451 29.6885 107.959 29.4561C107.471 29.2236 107.089 28.9001 106.811 28.4854C106.537 28.0706 106.403 27.599 106.407 27.0703C106.403 26.5417 106.537 26.07 106.811 25.6553C107.089 25.2406 107.471 24.917 107.959 24.6846C108.451 24.4521 109.005 24.3359 109.62 24.3359ZM109.62 25.4023C109.246 25.4023 108.909 25.473 108.608 25.6143C108.312 25.751 108.08 25.9469 107.911 26.2021C107.747 26.4528 107.665 26.7422 107.665 27.0703C107.665 27.3984 107.749 27.6924 107.918 27.9521C108.087 28.2074 108.319 28.4079 108.615 28.5537C108.911 28.695 109.246 28.7656 109.62 28.7656C109.989 28.7656 110.322 28.695 110.618 28.5537C110.919 28.4079 111.154 28.2074 111.322 27.9521C111.491 27.6924 111.575 27.3984 111.575 27.0703C111.575 26.7422 111.491 26.4528 111.322 26.2021C111.154 25.9469 110.921 25.751 110.625 25.6143C110.329 25.473 109.994 25.4023 109.62 25.4023ZM128.088 26.291C128.088 26.9792 128.078 27.5785 128.06 28.0889C128.046 28.5947 128.005 29.1803 127.937 29.8457C127.873 30.5111 127.768 31.2311 127.623 32.0059L126.31 31.8691C126.456 31.1354 126.563 30.445 126.631 29.7979C126.704 29.1462 126.748 28.5674 126.761 28.0615C126.78 27.5557 126.789 26.9655 126.789 26.291V26.1406H119.351V25.0879H128.088V26.291ZM129.345 34.5078H118.175V33.4277H122.427V29.1074H123.713V33.4277H129.345V34.5078ZM143.571 30.7207H142.272V23.9258H143.571V30.7207ZM137.87 25.5527C137.865 26.0905 137.986 26.6077 138.232 27.1045C138.483 27.5967 138.838 28.0296 139.299 28.4033C139.764 28.777 140.304 29.0573 140.919 29.2441L140.29 30.2695C139.574 30.0371 138.952 29.6908 138.424 29.2305C137.9 28.7702 137.496 28.2256 137.214 27.5967C136.931 28.2757 136.521 28.8682 135.983 29.374C135.45 29.8753 134.821 30.2467 134.097 30.4883L133.454 29.4629C134.083 29.2578 134.63 28.957 135.095 28.5605C135.559 28.1595 135.917 27.6992 136.168 27.1797C136.419 26.6602 136.544 26.1178 136.544 25.5527V24.3633H137.87V25.5527ZM143.653 32.4297H142.04V34.959H143.776V36.0117H135.245V34.959H136.995V32.4297H135.354V31.3906H143.653V32.4297ZM140.755 34.959V32.4297H138.28V34.959H140.755ZM154.916 28.6562H156.884V29.7227H154.916V36.1895H153.617V23.9121H154.916V28.6562ZM151.621 26.1406H147.191V32.0605C148.276 32.056 149.228 32.0241 150.048 31.9648C150.873 31.9056 151.703 31.8008 152.537 31.6504L152.701 32.7441C151.858 32.8945 151.028 32.9993 150.212 33.0586C149.401 33.1133 148.462 33.1406 147.396 33.1406H146.876H145.892V25.0879H151.621V26.1406ZM163.58 25.9902H166.246V23.9258H167.545V32.8535H166.246V29.6816H163.58V30.748H157.893V24.9512H163.58V25.9902ZM159.178 29.7227H162.309V26.0039H159.178V29.7227ZM167.819 35.9023H159.547V32.0332H160.86V34.8496H167.819V35.9023ZM166.246 28.6152V27.0566H163.58V28.6152H166.246ZM171.302 32.0605C171.306 31.4863 171.363 31.0215 171.472 30.666C171.586 30.306 171.744 30.0189 171.944 29.8047C172.145 29.5859 172.414 29.3717 172.751 29.1621C173.425 28.7428 173.762 28.2188 173.762 27.5898C173.762 27.3118 173.696 27.068 173.564 26.8584C173.437 26.6442 173.259 26.4801 173.031 26.3662C172.808 26.2523 172.559 26.1953 172.286 26.1953C172.031 26.1953 171.791 26.25 171.568 26.3594C171.345 26.4642 171.16 26.626 171.014 26.8447C170.873 27.0635 170.791 27.3346 170.768 27.6582H169.292C169.31 27.0977 169.451 26.6146 169.716 26.209C169.985 25.7988 170.342 25.4889 170.789 25.2793C171.235 25.0697 171.735 24.9648 172.286 24.9648C172.869 24.9648 173.384 25.0765 173.831 25.2998C174.282 25.5186 174.631 25.8262 174.877 26.2227C175.127 26.6191 175.253 27.0749 175.253 27.5898C175.253 28.1185 175.134 28.5765 174.897 28.9639C174.66 29.3467 174.314 29.6771 173.858 29.9551C173.576 30.1237 173.352 30.2992 173.188 30.4814C173.029 30.6637 172.908 30.8802 172.826 31.1309C172.748 31.3815 172.705 31.6914 172.696 32.0605V32.1426H171.302V32.0605ZM172.054 35.0957C171.88 35.0957 171.716 35.0524 171.561 34.9658C171.411 34.8792 171.292 34.7607 171.206 34.6104C171.119 34.46 171.078 34.2982 171.083 34.125C171.078 33.9518 171.119 33.79 171.206 33.6396C171.292 33.4893 171.411 33.3708 171.561 33.2842C171.716 33.1976 171.88 33.1543 172.054 33.1543C172.222 33.1543 172.382 33.1976 172.532 33.2842C172.682 33.3708 172.801 33.4893 172.887 33.6396C172.979 33.79 173.024 33.9518 173.024 34.125C173.024 34.2982 172.979 34.46 172.887 34.6104C172.801 34.7607 172.682 34.8792 172.532 34.9658C172.382 35.0524 172.222 35.0957 172.054 35.0957Z" fill="#9162E6"/>
</svg>
