<svg width="36" height="36" viewBox="0 0 36 36" fill="none" xmlns="http://www.w3.org/2000/svg">
<path d="M18 4.5C25.4558 4.5 31.5 10.5442 31.5 18C31.5 25.4558 25.4558 31.5 18 31.5C10.5442 31.5 4.5 25.4558 4.5 18C4.5 10.5442 10.5442 4.5 18 4.5Z" fill="white" fill-opacity="0.1"/>
<path d="M17.7302 25.5C16.9761 25.5 16.4243 24.9559 16.4243 24.2122C16.4243 23.4504 16.9761 22.9244 17.7302 22.9244C18.5026 22.9244 19.036 23.4504 19.036 24.2122C19.036 24.9559 18.5026 25.5 17.7302 25.5ZM16.4979 21.1651C16.4795 19.2243 17.0681 18.0272 18.4842 16.9933C19.7901 16.032 20.066 15.5242 20.1027 14.7987C20.1763 13.656 19.2935 12.8579 18.006 12.8579C17.0497 12.8579 16.1301 13.5472 15.7438 14.5266L13.5 13.7104C14.2173 11.8241 16.0933 10.5 18.006 10.5C20.7649 10.5 22.6224 12.3138 22.4937 14.9075C22.4201 16.2497 21.7396 17.5375 19.9188 18.8978C19.036 19.5326 18.8705 19.841 18.8889 21.1469L16.4979 21.1651Z" fill="#FEFEFE"/>
</svg>
