<svg width="11" height="10" viewBox="0 0 11 10" fill="none" xmlns="http://www.w3.org/2000/svg">
<path d="M8.95209 0.244081C9.27753 -0.0813603 9.80536 -0.0813603 10.1308 0.244081C10.4562 0.569527 10.4562 1.09737 10.1308 1.42279L6.55365 4.99994L10.1308 8.57709C10.4562 8.90253 10.4562 9.43036 10.1308 9.7558C9.80536 10.0812 9.27753 10.0812 8.95209 9.7558L5.37494 6.17865L1.79779 9.7558C1.47237 10.0812 0.944527 10.0812 0.619081 9.7558C0.29364 9.43036 0.29364 8.90253 0.619081 8.57709L4.19623 4.99994L0.619081 1.42279C0.29364 1.09735 0.29364 0.569522 0.619081 0.244081C0.944522 -0.0813602 1.47235 -0.0813602 1.79779 0.244081L5.37494 3.82123L8.95209 0.244081Z" fill="#FEFEFE"/>
</svg>
