<svg width="20" height="20" viewBox="0 0 20 20" fill="none" xmlns="http://www.w3.org/2000/svg">
<path d="M10 17C11.3845 17 12.7378 16.5895 13.889 15.8203C15.0401 15.0511 15.9373 13.9579 16.4672 12.6788C16.997 11.3997 17.1356 9.99224 16.8655 8.63437C16.5954 7.2765 15.9287 6.02922 14.9497 5.05026C13.9708 4.07129 12.7235 3.4046 11.3656 3.13451C10.0078 2.86441 8.6003 3.00303 7.32121 3.53285C6.04213 4.06266 4.94888 4.95987 4.17971 6.11101C3.41054 7.26215 3 8.61553 3 10C3 11.1573 3.28 12.2486 3.77778 13.2099L3 17L6.79011 16.2222C7.75144 16.72 8.84344 17 10 17Z" stroke="#F4F4F4" stroke-width="2" stroke-linecap="round" stroke-linejoin="round"/>
</svg>
