<svg width="57" height="56" viewBox="0 0 57 56" fill="none" xmlns="http://www.w3.org/2000/svg">
<path d="M25.1455 5.34375C37.9294 3.20791 47.1303 11.6881 47.5479 12.085V12.0859C55.0639 19.2468 54.5412 28.0089 54.4629 30.5049V30.5186L54.4619 30.5322C54.3957 31.3038 54.3271 34.2433 53.2842 37.5381C52.2396 40.8379 50.201 44.5533 46.1592 46.8662C45.0413 47.5059 42.4982 49.3883 37.1748 50.165C27.4807 51.5798 20.6972 51.1561 15.3965 49.1982C12.9996 48.3135 6.99925 45.6248 4.07031 39.5957C1.75061 34.8195 2.54534 30.387 3.05371 27.5273C3.35034 25.8557 4.39585 20.9827 8.32715 16C10.2138 13.6086 15.4475 6.96469 25.1455 5.34473V5.34375Z" fill="#FAD8D1" stroke="#BC7D70"/>
<path d="M12.4647 30.4092C12.1089 30.7999 11.9076 31.2241 12.0573 31.7518C12.2597 32.4645 13.0304 32.6163 13.6869 32.423C14.2978 32.2432 17.0254 30.1408 19.3901 30.1854C21.4022 30.2234 23.6676 31.7518 24.2787 31.9755C24.8281 32.1767 25.3439 32.0257 25.7045 31.528C26.0058 31.1121 26.1246 30.6608 25.9082 30.1854C25.7045 29.7381 22.1086 27.5263 19.3901 27.5003C16.4948 27.4725 13.2799 29.5142 12.4647 30.4092Z" fill="#BC7D70"/>
<path d="M44.5769 30.4092C44.9327 30.7999 45.134 31.2241 44.9843 31.7518C44.782 32.4645 44.0113 32.6163 43.3548 32.423C42.7438 32.2432 40.0162 30.1408 37.6515 30.1854C35.6394 30.2234 33.374 31.7518 32.7629 31.9755C32.2136 32.1767 31.6978 32.0257 31.3371 31.528C31.0358 31.1121 30.917 30.6608 31.1334 30.1854C31.3371 29.7381 34.933 27.5263 37.6515 27.5003C40.5469 27.4725 43.7618 29.5142 44.5769 30.4092Z" fill="#BC7D70"/>
<path d="M32.7031 36.1982C32.0477 35.3569 30.0221 35.5 28.0204 35.5002C26.0188 35.5004 24.1837 35.3007 23.5283 36.1982C22.4716 37.6455 23.3186 40.1029 24.017 41C24.5413 41.6733 26.0469 44.5 28.0204 44.5C29.9939 44.5 31.6399 41.6733 32.0231 41C32.4064 40.3267 33.5767 37.3197 32.7031 36.1982Z" fill="#BC7D70"/>
<path d="M40.843 12.5339C40.4714 12.5071 40.0642 18.1428 40.0642 18.1428C40.0642 18.1428 39.0352 17.8983 38.3917 18.0221C37.2277 18.2461 36.1723 18.7411 36.0123 19.9277C35.8237 21.3279 37.2416 22.3027 38.637 22.383C39.8868 22.455 41.2832 21.9543 41.3744 20.6922L41.768 15.2443C41.768 15.2443 43.2629 15.9989 43.7625 15.4998C44.262 15.0006 42.4308 12.6484 40.843 12.5339Z" fill="#BC7D70"/>
<path d="M50.811 8.28647C50.4185 8.25818 49.9886 14.2089 49.9886 14.2089C49.9886 14.2089 48.9021 13.9508 48.2226 14.0815C46.9935 14.3181 45.879 14.8407 45.7102 16.0936C45.511 17.5721 47.0082 18.6015 48.4816 18.6863C49.8012 18.7622 51.2758 18.2336 51.3721 16.9008L51.7877 11.1484C51.7877 11.1484 53.1098 11.9577 53.6373 11.4306C54.1029 10.9654 52.4875 8.40733 50.811 8.28647Z" fill="#BC7D70"/>
<ellipse cx="1.8115" cy="1.00296" rx="1.8115" ry="1.00296" transform="matrix(0.991709 -0.128502 0.0970429 0.99528 36.5732 18.2646)" fill="url(#paint0_linear_6121_57747)" fill-opacity="0.5"/>
<ellipse cx="1.7245" cy="0.95556" rx="1.7245" ry="0.95556" transform="matrix(0.991709 -0.128502 0.0970429 0.99528 46.257 14.3936)" fill="url(#paint1_linear_6121_57747)" fill-opacity="0.5"/>
<defs>
<linearGradient id="paint0_linear_6121_57747" x1="1.8115" y1="0" x2="1.8115" y2="2.00592" gradientUnits="userSpaceOnUse">
<stop stop-color="#CE9E94"/>
<stop offset="1" stop-color="#B47467"/>
</linearGradient>
<linearGradient id="paint1_linear_6121_57747" x1="1.7245" y1="0" x2="1.7245" y2="1.91112" gradientUnits="userSpaceOnUse">
<stop stop-color="#CE9E94"/>
<stop offset="1" stop-color="#B47467"/>
</linearGradient>
</defs>
</svg>
