<svg width="24" height="24" viewBox="0 0 24 24" fill="none" xmlns="http://www.w3.org/2000/svg">
<path d="M3 5C3 4.44772 3.44772 4 4 4H17C17.5523 4 18 4.44772 18 5V19C18 19.5523 17.5523 20 17 20H4C3.44772 20 3 19.5523 3 19V5Z" fill="url(#paint0_linear_983_24442)" fill-opacity="0.5"/>
<path d="M4 5V19H17V5H4ZM19 19C19 20.1046 18.1046 21 17 21H4C2.89543 21 2 20.1046 2 19V5C2 3.89543 2.89543 3 4 3H17C18.1046 3 19 3.89543 19 5V19Z" fill="#A16DFF"/>
<path d="M11 12C11.5523 12 12 12.4477 12 13C12 13.5523 11.5523 14 11 14H7C6.44772 14 6 13.5523 6 13C6 12.4477 6.44772 12 7 12H11Z" fill="#A16DFF"/>
<path d="M13 8C13.5523 8 14 8.44772 14 9C14 9.55228 13.5523 10 13 10H7C6.44772 10 6 9.55228 6 9C6 8.44772 6.44772 8 7 8H13Z" fill="#A16DFF"/>
<path d="M20.5162 8.39326C20.7338 8.01928 21.2191 7.88916 21.5999 8.1028C21.9806 8.3165 22.1131 8.79315 21.8956 9.16715L19.1017 13.9699C18.2438 15.4443 15.9792 15.0629 15.6699 13.3921L15.6203 13.1239C15.577 12.8902 15.2636 12.8312 15.1354 13.0325L12.8864 16.5668C11.9591 18.0242 9.68135 17.523 9.47529 15.8163L9.3388 14.6941C9.30848 14.4429 8.96854 14.3779 8.84456 14.5996L5.49029 20.5957C5.27905 20.9731 4.79615 21.1108 4.41184 20.9035C4.02761 20.696 3.8874 20.2217 4.09854 19.8442L7.4528 13.8481C8.32073 12.2965 10.7044 12.7522 10.9167 14.5102L11.0521 15.6325C11.0816 15.8762 11.4066 15.9482 11.5391 15.7401L13.7881 12.2058C14.6854 10.7957 16.8797 11.2086 17.1827 12.8446L17.2323 13.1128C17.2764 13.3513 17.5997 13.4062 17.7224 13.196L20.5162 8.39326Z" fill="#FFCD54"/>
<defs>
<linearGradient id="paint0_linear_983_24442" x1="10.9513" y1="4" x2="10.9513" y2="20.2163" gradientUnits="userSpaceOnUse">
<stop stop-color="#A16DFF"/>
<stop offset="1" stop-color="#A16DFF" stop-opacity="0"/>
</linearGradient>
</defs>
</svg>
