<svg width="24" height="24" viewBox="0 0 24 24" fill="none" xmlns="http://www.w3.org/2000/svg">
<path d="M14 4C15.9092 4 17.5049 5.3378 17.9033 7.12695C19.6266 7.57235 20.8994 9.13756 20.8994 11C20.8994 11.4836 20.8125 11.9468 20.6553 12.376C20.8762 12.8724 21 13.4216 21 14C21 15.9647 19.5833 17.5971 17.7158 17.9346C17.0024 18.5951 16.0489 19 15 19C13.8047 19 12.733 18.4747 12 17.6436C11.267 18.4747 10.1953 19 9 19C7.95084 19 6.99665 18.5954 6.2832 17.9346C4.41624 17.5967 3 15.9644 3 14C3 13.0274 3.34676 12.1357 3.92383 11.4424C3.90784 11.2971 3.89941 11.1495 3.89941 11C3.89941 9.46363 4.76541 8.12904 6.03613 7.45898C6.30022 5.50572 7.97434 4 10 4C10.7288 4 11.4116 4.19564 12 4.53613C12.5884 4.19564 13.2712 4 14 4Z" fill="url(#paint0_linear_983_24444)" fill-opacity="0.5"/>
<path d="M8.6651 15.3291C9.0355 15.1442 9.4858 15.2947 9.67096 15.665C9.85586 16.0354 9.70531 16.4857 9.33503 16.6709L7.48053 17.5986C7.45661 17.6106 7.43501 17.6266 7.41608 17.6455L6.53034 18.5303C6.23746 18.8231 5.76269 18.8231 5.46979 18.5303C5.1769 18.2374 5.1769 17.7626 5.46979 17.4697L6.35456 16.584C6.48749 16.4511 6.64151 16.3409 6.80964 16.2568L8.6651 15.3291ZM12.0001 4.25C12.4142 4.25005 12.7501 4.58582 12.7501 5V6.85449L13.3926 6.48438C13.6586 6.33084 13.9606 6.25005 14.2676 6.25H15.0001L15.0762 6.25391C15.4545 6.29225 15.7501 6.61163 15.7501 7C15.7501 7.38837 15.4545 7.70775 15.0762 7.74609L15.0001 7.75H14.2676C14.2239 7.75005 14.1805 7.76135 14.1426 7.7832L12.7501 8.58691V18C12.7501 18.4142 12.4142 18.75 12.0001 18.75C11.5859 18.75 11.2501 18.4142 11.2501 18V13.25H10.2657C9.96078 13.2499 9.66115 13.1701 9.39655 13.0186L8.12409 12.29C8.04723 12.2461 7.95292 12.2461 7.87604 12.29L6.37311 13.1504L6.30475 13.1855C5.95759 13.3403 5.54285 13.2098 5.34967 12.873C5.14386 12.5136 5.26763 12.0545 5.62702 11.8486L7.12995 10.9883C7.66868 10.6798 8.33147 10.6798 8.87018 10.9883L10.1417 11.7168C10.1794 11.7384 10.2223 11.7499 10.2657 11.75H11.2501V5C11.2501 4.58579 11.5859 4.25 12.0001 4.25ZM14.6651 13.3291C15.0123 13.1558 15.4294 13.2768 15.6329 13.5977L15.671 13.665L16.3946 15.1113C16.437 15.196 16.5236 15.25 16.6182 15.25H17.586C18.05 15.2501 18.4952 15.4346 18.8233 15.7627L19.5303 16.4697L19.5821 16.5264C19.8223 16.8209 19.8049 17.2557 19.5303 17.5303C19.2558 17.8049 18.821 17.8223 18.5264 17.582L18.4698 17.5303L17.7628 16.8232C17.7159 16.7764 17.6522 16.7501 17.586 16.75H16.6182C15.9554 16.75 15.3492 16.3751 15.0528 15.7822L14.3292 14.335L14.2989 14.2646C14.1643 13.9093 14.3179 13.5027 14.6651 13.3291ZM16.4444 9.25879C17.1328 8.84577 18.0143 8.95398 18.5821 9.52148L19.4385 10.3779C19.4536 10.393 19.4709 10.4062 19.4893 10.417L21.0928 11.3525C21.4506 11.5612 21.5719 12.0201 21.3633 12.3779C21.1547 12.7356 20.6957 12.8559 20.338 12.6475L18.7344 11.7129C18.6045 11.6371 18.4844 11.5448 18.378 11.4385L17.5216 10.582C17.4405 10.5013 17.315 10.4862 17.2169 10.5449L15.3858 11.6436C15.0307 11.8564 14.5696 11.7408 14.3565 11.3857C14.1436 11.0306 14.2592 10.5695 14.6143 10.3564L16.4444 9.25879ZM5.40046 7.0498C5.63361 6.73931 6.06126 6.66098 6.38678 6.85742L6.45026 6.90039L8.18366 8.2002C8.22678 8.23243 8.27923 8.24993 8.33307 8.25H9.00007L9.07721 8.25391C9.45513 8.29257 9.75007 8.61187 9.75007 9C9.75006 9.38813 9.45513 9.70743 9.07721 9.74609L9.00007 9.75H8.33307C7.95461 9.74993 7.58607 9.62743 7.28327 9.40039L5.54987 8.09961L5.49128 8.05078C5.2117 7.79315 5.16744 7.36049 5.40046 7.0498Z" fill="#A16DFF" fill-opacity="0.3"/>
<path d="M19.8994 11C19.8994 9.76631 19.1545 8.70399 18.0859 8.24316C17.4959 7.98863 17.0283 7.50463 16.7939 6.90625C16.3835 5.85815 15.4021 5.09939 14.2354 5.00879L14 5C13.6065 5 13.2328 5.07534 12.8906 5.21191C12.3202 5.43964 11.6798 5.43964 11.1094 5.21191C10.7672 5.07534 10.3935 5 10 5C8.61595 5 7.44851 5.93814 7.10352 7.21484C6.95859 7.75141 6.62889 8.22397 6.17383 8.54492C5.40118 9.08964 4.89941 9.98654 4.89941 11V11.0137C4.90158 11.4845 4.76295 11.9465 4.50195 12.3379C4.18503 12.8131 4 13.3833 4 14L4.01074 14.2588C4.12024 15.5389 5.03519 16.5905 6.24805 16.9033C6.56866 16.986 6.86934 17.1362 7.12891 17.3438C7.64251 17.7546 8.29139 18 9 18C9.59197 18 10.141 17.829 10.6045 17.5342C11.4398 17.003 12.5602 17.003 13.3955 17.5342C13.859 17.829 14.408 18 15 18C15.708 18 16.3564 17.7546 16.8701 17.3438C17.1299 17.1361 17.4312 16.986 17.752 16.9033C18.965 16.5905 19.8798 15.539 19.9893 14.2588L20 14C20 13.6729 19.9469 13.3597 19.8506 13.0664C19.71 12.6386 19.6951 12.1776 19.8066 11.7412C19.8671 11.5045 19.8994 11.2564 19.8994 11ZM21.8994 11C21.8994 11.4263 21.8452 11.8406 21.7441 12.2363C21.727 12.3034 21.7294 12.3755 21.751 12.4414C21.9123 12.9323 22 13.4566 22 14C22 16.331 20.4059 18.2854 18.251 18.8408C18.2026 18.8533 18.1571 18.8759 18.1191 18.9062C17.265 19.5894 16.1798 20 15 20C14.0162 20 13.0966 19.7142 12.3223 19.2217C12.1419 19.107 11.8581 19.107 11.6777 19.2217C10.9034 19.7142 9.98385 20 9 20C7.8203 20 6.73448 19.5898 5.87988 18.9062C5.84183 18.8758 5.79645 18.8533 5.74805 18.8408C3.661 18.3025 2.10058 16.4516 2.00488 14.2178L2 14C2 12.9767 2.3084 12.0215 2.83789 11.2275C2.8781 11.1671 2.89975 11.0946 2.89941 11.0225V11C2.89941 9.30916 3.73994 7.81366 5.02148 6.91016C5.09425 6.85868 5.14933 6.78044 5.17285 6.69336C5.74752 4.56632 7.68953 3 10 3C10.6523 3 11.2773 3.12567 11.8506 3.35449C11.945 3.39218 12.055 3.39218 12.1494 3.35449C12.7227 3.12567 13.3477 3 14 3L14.1982 3.00391C16.2321 3.0832 17.9514 4.37707 18.6562 6.17676C18.6959 6.27806 18.778 6.36414 18.8779 6.40723C20.6534 7.17292 21.8994 8.93974 21.8994 11Z" fill="#A16DFF"/>
<defs>
<linearGradient id="paint0_linear_983_24444" x1="12" y1="4" x2="12" y2="19" gradientUnits="userSpaceOnUse">
<stop stop-color="#A16DFF"/>
<stop offset="1" stop-color="#A16DFF" stop-opacity="0"/>
</linearGradient>
</defs>
</svg>
