<svg width="24" height="24" viewBox="0 0 24 24" fill="none" xmlns="http://www.w3.org/2000/svg">
<path d="M3.05634 9.08733L6.75399 3.75852C7.38286 2.85222 8.64242 2.62495 9.55719 3.25272L10.9178 4.18646C11.2543 4.41738 11.6547 4.54119 12.0649 4.54119H12.9682C14.0757 4.54119 14.9735 5.4246 14.9735 6.51433V9.52126C14.9735 10.2002 15.3282 10.8315 15.9127 11.1925L20.489 14.0189C20.7407 14.1744 20.9542 14.3831 21.114 14.6297L21.417 15.0976C21.8037 15.6947 21.8037 16.4582 21.417 17.0553C21.0771 17.5801 20.4885 17.8978 19.856 17.8978H12.1275C11.6787 17.8978 11.2428 17.7496 10.8897 17.477L3.47459 11.7523C2.64381 11.1109 2.4609 9.94544 3.05634 9.08733Z" fill="url(#paint0_linear_5283_29391)" fill-opacity="0.5"/>
<path d="M13.6797 6.33966C13.6797 5.82611 13.2522 5.40979 12.725 5.40967H11.8645C11.2787 5.40962 10.707 5.23391 10.2265 4.90744L8.9306 4.0274C8.49512 3.73174 7.89582 3.83918 7.5965 4.26625L4.07524 9.28949C3.79212 9.6939 3.87938 10.2433 4.27475 10.5455L11.335 15.942C11.503 16.0704 11.7106 16.14 11.9242 16.14H19.2827C19.5587 16.14 19.8159 16.0026 19.9642 15.7758C20.1329 15.5179 20.1329 15.1882 19.9642 14.9303L19.6761 14.4889C19.6001 14.3727 19.4977 14.2743 19.3778 14.201L15.0212 11.5373C14.1866 11.0269 13.6798 10.1341 13.6797 9.17415V6.33966ZM15.589 9.17415C15.5891 9.49395 15.7576 9.79146 16.0356 9.96155L20.3931 12.6262C20.7526 12.8461 21.0581 13.1411 21.2862 13.4899L21.5743 13.9304C22.1419 14.7981 22.1419 15.908 21.5743 16.7758C21.0753 17.5383 20.211 18 19.2827 18H11.9242C11.2832 18 10.6608 17.7905 10.1566 17.4051L3.09634 12.0086C1.90985 11.1017 1.64845 9.45386 2.49875 8.24052L6.02 3.21728C6.91818 1.93592 8.71679 1.61407 10.0232 2.50163L11.3191 3.38258C11.4791 3.49114 11.6695 3.54963 11.8645 3.54968H12.725C14.3066 3.5498 15.589 4.79887 15.589 6.33966V9.17415Z" fill="#A16DFF"/>
<path d="M5.25882 19.8978L5.77646 17.9659C5.9194 17.4325 6.46774 17.1159 7.0012 17.2588C7.53467 17.4018 7.85125 17.9501 7.70831 18.4836L7.19067 20.4154C7.04773 20.9489 6.49939 21.2655 5.96593 21.1225C5.43247 20.9796 5.11588 20.4312 5.25882 19.8978Z" fill="#FFCD54"/>
<path d="M2.36604 16.5L4.09809 15.5C4.57638 15.2239 5.18797 15.3877 5.46411 15.866C5.74025 16.3443 5.57638 16.9559 5.09809 17.2321L3.36604 18.2321C2.88774 18.5082 2.27615 18.3443 2.00001 17.866C1.72388 17.3877 1.88775 16.7761 2.36604 16.5Z" fill="#FFCD54"/>
<defs>
<linearGradient id="paint0_linear_5283_29391" x1="12.6279" y1="2.11272" x2="12.6279" y2="18.1112" gradientUnits="userSpaceOnUse">
<stop stop-color="#A16DFF"/>
<stop offset="1" stop-color="#A16DFF" stop-opacity="0"/>
</linearGradient>
</defs>
</svg>
