<svg width="24" height="25" viewBox="0 0 24 25" fill="none" xmlns="http://www.w3.org/2000/svg">
<path d="M12 3.5C16.9706 3.5 21 7.52944 21 12.5C21 17.4706 16.9706 21.5 12 21.5C7.02944 21.5 3 17.4706 3 12.5C3 7.52944 7.02944 3.5 12 3.5Z" fill="white" fill-opacity="0.1"/>
<path d="M16.6344 8.73432C16.9468 8.42189 17.4533 8.42189 17.7657 8.73432C18.0781 9.04674 18.0781 9.55316 17.7657 9.86559L11.3656 16.2657C11.0532 16.5781 10.5468 16.5781 10.2344 16.2657L6.23432 12.2656C5.92189 11.9532 5.92189 11.4468 6.23432 11.1344C6.54674 10.8219 7.05316 10.8219 7.36558 11.1344L10.8 14.5688L16.6344 8.73432Z" fill="#A6A6A6"/>
</svg>
