<svg width="24" height="24" viewBox="0 0 24 24" fill="none" xmlns="http://www.w3.org/2000/svg">
<path d="M19.293 3.29295C19.6835 2.90243 20.3166 2.90243 20.7071 3.29295C21.0976 3.68348 21.0976 4.31649 20.7071 4.70702L4.70708 20.707C4.31655 21.0975 3.68354 21.0975 3.29302 20.707C2.90249 20.3165 2.90249 19.6835 3.29302 19.293L19.293 3.29295Z" fill="black"/>
<path d="M3.29302 3.29295C3.68354 2.90243 4.31655 2.90243 4.70708 3.29295L20.7071 19.293L20.7754 19.3691C21.0958 19.7619 21.0732 20.3409 20.7071 20.707C20.341 21.0731 19.762 21.0957 19.3692 20.7754L19.293 20.707L3.29302 4.70702C2.90249 4.31649 2.90249 3.68348 3.29302 3.29295Z" fill="black"/>
</svg>
