<svg width="24" height="24" viewBox="0 0 24 24" fill="none" xmlns="http://www.w3.org/2000/svg">
<path d="M17 4.89474C17 3.94737 16 3 15 3C14.2536 3 13.4555 3.53243 12.8703 4.03281C12.3891 4.44422 11.6229 4.4336 11.1452 4.01817C10.5748 3.5221 9.7874 3 9 3C7.89543 3 6.82161 3.89364 6.5 4.89474C5.83699 6.95855 7.5 9.14231 12 8C17.5982 6.57891 21 10.7059 21 14.3684C21 18.0309 16.9706 21 12 21C7.02944 21 3 18.0309 3 14.3684C3 10.7059 5 9.63154 5 9.63154" stroke="#9C79DE" stroke-width="2" stroke-linecap="round" stroke-linejoin="round"/>
<path d="M14.5 13.5L14.5 14.5" stroke="#9C79DE" stroke-width="2" stroke-linecap="round" stroke-linejoin="round"/>
<path d="M9.5 13.5L9.5 14.5" stroke="#9C79DE" stroke-width="2" stroke-linecap="round" stroke-linejoin="round"/>
</svg>
