<svg width="24" height="24" viewBox="0 0 24 24" fill="none" xmlns="http://www.w3.org/2000/svg">
<path d="M17 10.5C17 6.91015 14.0899 4 10.5 4C6.91015 4 4 6.91015 4 10.5C4 14.0899 6.91015 17 10.5 17C14.0899 17 17 14.0899 17 10.5ZM19 10.5C19 15.1944 15.1944 19 10.5 19C5.80558 19 2 15.1944 2 10.5C2 5.80558 5.80558 2 10.5 2C15.1944 2 19 5.80558 19 10.5Z" fill="black"/>
<path d="M15.293 15.293C15.6835 14.9024 16.3166 14.9024 16.7071 15.293L21.7071 20.293L21.7754 20.3691C22.0958 20.7619 22.0732 21.3409 21.7071 21.707C21.341 22.0731 20.762 22.0957 20.3692 21.7754L20.293 21.707L15.293 16.707C14.9025 16.3165 14.9025 15.6835 15.293 15.293Z" fill="black"/>
</svg>
