<svg width="24" height="24" viewBox="0 0 24 24" fill="none" xmlns="http://www.w3.org/2000/svg">
<path fill-rule="evenodd" clip-rule="evenodd" d="M4.41895 3C4.81003 3 5.15262 3.17441 5.34766 3.43652C5.46979 3.39665 5.60262 3.375 5.74121 3.375C6.30368 3.37513 6.76656 3.73477 6.83203 4.19922C7.22515 4.34216 7.50093 4.67518 7.50098 5.0625C7.50098 5.58032 7.00788 6 6.40039 6L6.39941 5.99902V6H3.09961L2.9873 5.99512C2.43276 5.94224 2.00007 5.50265 2 4.96875C2 4.39925 2.49228 3.93768 3.09961 3.9375C3.17502 3.9375 3.24917 3.94348 3.32031 3.95703C3.32015 3.95053 3.31934 3.94403 3.31934 3.9375C3.31934 3.41979 3.81164 3.00019 4.41895 3Z" fill="#355A6B"/>
<path d="M19.8008 18C19.4453 18.0001 19.1343 18.1744 18.957 18.4365C18.8461 18.3967 18.7255 18.375 18.5996 18.375C18.0883 18.3751 17.6679 18.7348 17.6084 19.1992C17.2509 19.3421 17 19.675 17 20.0625C17 20.5802 17.4479 20.9999 18 21H18.001H21L21.1025 20.9951C21.6066 20.9423 22 20.5027 22 19.9688C22 19.3992 21.5522 18.9375 21 18.9375C20.9315 18.9375 20.8644 18.9435 20.7998 18.957C20.7999 18.9505 20.8008 18.944 20.8008 18.9375C20.8008 18.4197 20.353 18 19.8008 18Z" fill="#355A6B"/>
<path d="M9.78928 17.0898C9.06885 17.5185 8.97839 17.5185 8.97839 17.5185L10.219 13.8918L12.2866 15.1007C12.2866 15.1007 10.5784 16.6201 9.78928 17.0898Z" fill="#614199"/>
<path d="M7.32446 12.6829L20.9707 5.02661L10.2191 13.8917L8.97855 17.5184L8.56503 16.3095L7.32446 12.6829Z" fill="#8157CC"/>
<path d="M16.0087 17.5183C15.1817 17.5491 10.2194 13.8916 10.2194 13.8916C10.2194 13.8916 20.9647 4.92394 20.9709 5.02651C20.9996 5.5 16.4996 17.5 16.0087 17.5183Z" fill="#A16DFF"/>
<path d="M4.0166 9.45949C4.4294 9.05634 19.9998 5.00006 20.971 5.02681C20.9969 5.02752 7.32476 12.683 7.32476 12.683C7.32476 12.683 3.72468 9.74457 4.0166 9.45949Z" fill="#A16DFF"/>
</svg>
