<svg width="327" height="53" viewBox="0 0 327 53" fill="none" xmlns="http://www.w3.org/2000/svg">
<rect width="327" height="53" rx="12" fill="black"/>
<path d="M105.686 31.5275C105.416 32.1563 105.098 32.7352 104.728 33.2674C104.225 33.9929 103.813 34.4952 103.495 34.774C103.002 35.2318 102.475 35.4662 101.91 35.4796C101.504 35.4796 101.015 35.3629 100.446 35.1262C99.8744 34.8907 99.3494 34.774 98.8693 34.774C98.3659 34.774 97.826 34.8907 97.2484 35.1262C96.67 35.3629 96.2041 35.4862 95.8478 35.4985C95.306 35.5218 94.7659 35.2807 94.2269 34.774C93.8828 34.4707 93.4525 33.9507 92.9369 33.2141C92.3838 32.4274 91.9291 31.5152 91.5728 30.4753C91.1913 29.352 91 28.2642 91 27.2112C91 26.0049 91.2579 24.9644 91.7744 24.0926C92.1803 23.3923 92.7204 22.8398 93.3963 22.4343C94.0722 22.0288 94.8025 21.8221 95.589 21.8089C96.0194 21.8089 96.5837 21.9434 97.285 22.2079C97.9844 22.4732 98.4334 22.6077 98.6303 22.6077C98.7774 22.6077 99.2763 22.4504 100.122 22.1368C100.922 21.8459 101.597 21.7254 102.149 21.7729C103.648 21.8951 104.773 22.4921 105.522 23.5676C104.182 24.3882 103.519 25.5376 103.532 27.0122C103.544 28.1607 103.957 29.1164 104.767 29.8753C105.134 30.2275 105.544 30.4997 106 30.693C105.901 30.983 105.797 31.2608 105.686 31.5275ZM102.249 17.8601C102.249 18.7603 101.924 19.6008 101.276 20.3788C100.493 21.3037 99.5462 21.8381 98.5197 21.7538C98.5066 21.6458 98.499 21.5321 98.499 21.4127C98.499 20.5485 98.8712 19.6236 99.5322 18.8674C99.8622 18.4845 100.282 18.1662 100.791 17.9122C101.299 17.662 101.779 17.5237 102.231 17.5C102.244 17.6203 102.249 17.7407 102.249 17.8601V17.8601Z" fill="white"/>
<path d="M124.292 32H122.464L126.527 20.6875H128.511L132.589 32H130.761L129.73 29.0156H125.323L124.292 32ZM125.823 27.5781H129.23L127.558 22.75H127.48L125.823 27.5781ZM133.726 35.1875V23.5156H135.351V24.8906H135.492C135.788 24.3594 136.367 23.4062 137.929 23.4062C139.976 23.4062 141.492 25.0156 141.492 27.7812C141.492 30.5156 140.007 32.1719 137.945 32.1719C136.398 32.1719 135.788 31.2344 135.492 30.6719H135.398V35.1875H133.726ZM135.367 27.75C135.367 29.5312 136.148 30.75 137.57 30.75C139.038 30.75 139.804 29.4531 139.804 27.75C139.804 26.0781 139.054 24.8281 137.57 24.8281C136.132 24.8281 135.367 25.9844 135.367 27.75ZM142.988 35.1875V23.5156H144.613V24.8906H144.753C145.05 24.3594 145.628 23.4062 147.191 23.4062C149.238 23.4062 150.753 25.0156 150.753 27.7812C150.753 30.5156 149.269 32.1719 147.207 32.1719C145.66 32.1719 145.05 31.2344 144.753 30.6719H144.66V35.1875H142.988ZM144.628 27.75C144.628 29.5312 145.41 30.75 146.832 30.75C148.3 30.75 149.066 29.4531 149.066 27.75C149.066 26.0781 148.316 24.8281 146.832 24.8281C145.394 24.8281 144.628 25.9844 144.628 27.75ZM153.922 20.6875V32H152.25V20.6875H153.922ZM159.449 32.1719C156.949 32.1719 155.418 30.4531 155.418 27.8125C155.418 25.2031 156.98 23.4062 159.34 23.4062C161.277 23.4062 163.105 24.6094 163.105 27.6719V28.2656H157.074C157.121 29.875 158.066 30.7969 159.465 30.7969C160.418 30.7969 161.027 30.3906 161.308 29.875H162.996C162.621 31.25 161.308 32.1719 159.449 32.1719ZM157.09 27.0156H161.465C161.465 25.7188 160.637 24.7812 159.355 24.7812C158.019 24.7812 157.152 25.8125 157.09 27.0156ZM176.914 30.4062V31.6562H164.102V30.4062H169.742V27.9531H165.664V23.5H173.883V21.5312H165.633V20.3125H175.352V24.6875H167.133V26.7344H175.68V27.9531H171.211V30.4062H176.914ZM186.657 22.8906C186.641 25.4531 188.188 28.0156 190.36 28.9844L189.469 30.1562C187.86 29.3906 186.586 27.8203 185.938 25.9062C185.282 27.9531 183.993 29.6484 182.313 30.4688L181.407 29.2188C183.61 28.2344 185.157 25.5625 185.157 22.8906V20.5H186.657V22.8906ZM193.11 19.3281V33.3594H191.625V19.3281H193.11ZM200.075 21.8438C200.075 23.625 201.309 25.3281 203.45 26.0469L202.7 27.2031C201.114 26.6562 199.95 25.5625 199.34 24.1875C198.731 25.7031 197.52 26.8906 195.872 27.4688L195.075 26.3125C197.262 25.5625 198.575 23.7656 198.59 21.8281V21.4531H195.512V20.25H203.09V21.4531H200.075V21.8438ZM206.184 19.3281V22.9219H208.215V24.1719H206.184V27.7656H204.7V19.3281H206.184ZM206.184 28.4531V33.3281H204.7V29.6562H196.934V28.4531H206.184ZM219.758 19.3281V25H222.008V26.2344H219.758V33.3281H218.29V19.3281H219.758ZM217.071 21.5156V22.7344H208.774V21.5156H212.227V19.5156H213.712V21.5156H217.071ZM212.977 23.7656C214.977 23.7656 216.446 25.1094 216.462 27.0156C216.446 28.9375 214.977 30.2656 212.977 30.2812C210.962 30.2656 209.493 28.9375 209.493 27.0156C209.493 25.1094 210.962 23.7656 212.977 23.7656ZM212.977 24.9844C211.79 24.9844 210.899 25.8125 210.915 27.0156C210.899 28.2344 211.79 29.0469 212.977 29.0312C214.165 29.0469 215.04 28.2344 215.04 27.0156C215.04 25.8125 214.165 24.9844 212.977 24.9844ZM234.161 19.3281V33.3281H232.661V19.3281H234.161ZM229.989 20.8281C229.989 24.9219 228.239 28.4844 223.442 30.7812L222.661 29.5781C226.387 27.8047 228.2 25.2812 228.489 22.0156H223.333V20.8281H229.989Z" fill="white"/>
</svg>
