<svg width="53" height="47" viewBox="0 0 53 47" fill="none" xmlns="http://www.w3.org/2000/svg">
<path d="M23.124 0.84375C35.099 -1.15889 43.9271 6.17107 45.3262 7.4209L45.5059 7.58496V7.58594C53.0137 14.7459 52.4922 23.5115 52.4922 26V26.0215L52.4912 26.043C52.4246 26.8192 52.3365 29.7542 51.2744 33.0469C50.2111 36.3431 48.1549 40.054 44.1182 42.3662C43.0013 43.0059 40.461 44.8883 35.1426 45.665C25.4576 47.0799 18.6806 46.6561 13.3848 44.6982C10.9903 43.8136 4.99558 41.1242 2.06934 35.0947C-0.247933 30.3187 0.544861 25.887 1.05273 23.0273C1.34906 21.3558 2.39399 16.4836 6.32129 11.501C8.20594 9.10985 13.4347 2.46481 23.124 0.844727V0.84375Z" fill="#CCEAC6" stroke="#6B8A65"/>
<rect x="29.4159" y="18" width="12.7381" height="2" rx="1" fill="#6B8A65"/>
<rect x="9.81873" y="18" width="12.7381" height="2" rx="1" fill="#6B8A65"/>
<rect x="21.577" y="29" width="6.859" height="1.8" rx="0.9" fill="#6B8A65"/>
<path d="M37.2566 22.8329C37.2566 25.1343 35.9405 27 34.317 27C32.6935 27 31.3774 25.1343 31.3774 22.8329C31.3774 15.5402 32.6935 18.6658 34.317 18.6658C35.9405 18.6658 37.2566 16.5826 37.2566 22.8329Z" fill="#6B8A65"/>
<path d="M19.6193 22.8328C19.6193 25.1343 18.3032 27 16.6797 27C15.0562 27 13.7401 25.1343 13.7401 22.8328C13.7401 15.54 15.0562 18.6657 16.6797 18.6657C18.3032 18.6657 19.6193 16.5824 19.6193 22.8328Z" fill="#6B8A65"/>
<ellipse cx="1.4072" cy="1.16207" rx="1.4072" ry="1.16207" transform="matrix(0.0400289 -0.999198 0.999593 0.0285308 13.7382 22.7451)" fill="url(#paint0_linear_6121_49844)" fill-opacity="0.5"/>
<ellipse cx="1.40721" cy="1.16974" rx="1.40721" ry="1.16974" transform="matrix(0.0401501 -0.999194 0.999595 0.0284446 31.3402 22.7363)" fill="url(#paint1_linear_6121_49844)" fill-opacity="0.5"/>
<path d="M29.4159 29.901C29.4159 28.9768 27.4562 29.001 27.4562 29.001V30.8009C27.4562 30.8009 29.4159 30.8251 29.4159 29.901Z" fill="#6B8A65"/>
<path d="M20.5972 29.901C20.5972 28.9768 22.5569 29.001 22.5569 29.001V30.8009C22.5569 30.8009 20.5972 30.8251 20.5972 29.901Z" fill="#6B8A65"/>
<defs>
<linearGradient id="paint0_linear_6121_49844" x1="1.4072" y1="4.62525e-09" x2="1.53523" y2="2.72714" gradientUnits="userSpaceOnUse">
<stop stop-color="#819C7B"/>
<stop offset="1" stop-color="#758D70"/>
</linearGradient>
<linearGradient id="paint1_linear_6121_49844" x1="1.40721" y1="4.65578e-09" x2="1.53693" y2="2.74506" gradientUnits="userSpaceOnUse">
<stop stop-color="#819C7B"/>
<stop offset="1" stop-color="#758D70"/>
</linearGradient>
</defs>
</svg>
