<svg width="24" height="24" viewBox="0 0 24 24" fill="none" xmlns="http://www.w3.org/2000/svg">
<path d="M11 20V18.5C11 17.9196 11.2531 17.4526 11.5391 17.1191C11.8207 16.7908 12.1683 16.5477 12.4785 16.3779C12.7913 16.2067 13 15.8772 13 15.5C13 14.9477 12.5523 14.5 12 14.5C11.4823 14.5 11.0562 14.8933 11.0049 15.3975L10.9951 15.6025C10.9438 16.1067 10.5177 16.5 10 16.5C9.44772 16.5 9 16.0523 9 15.5C9 13.8431 10.3431 12.5 12 12.5C13.6569 12.5 15 13.8431 15 15.5C15 16.6369 14.3673 17.6248 13.4395 18.1328C13.2652 18.2282 13.1334 18.3314 13.0566 18.4209C13.0171 18.467 13.0039 18.4948 13 18.5059V20H19V11H5V20H9C9.55228 20 10 20.4477 10 21C10 21.5523 9.55228 22 9 22H5C3.96435 22 3.113 21.2128 3.01074 20.2041L3 20V11C3 9.89543 3.89543 9 5 9H7.76953C7.65786 8.30815 7.56004 7.37912 7.62793 6.42871C7.69711 5.46034 7.9444 4.35547 8.63574 3.47559C9.36605 2.54629 10.4863 2 12 2C13.5137 2 14.6339 2.54629 15.3643 3.47559C16.0556 4.35547 16.3029 5.46034 16.3721 6.42871C16.44 7.37912 16.3421 8.30815 16.2305 9H19C20.1046 9 21 9.89543 21 11V20C21 21.1046 20.1046 22 19 22H13C11.8958 22 11 21.105 11 20ZM12 4C11.0138 4 10.509 4.32889 10.208 4.71191C9.86826 5.14451 9.67789 5.78986 9.62207 6.57129C9.5673 7.33825 9.64962 8.12818 9.75195 8.74219C9.76711 8.8331 9.78447 8.91904 9.7998 9H14.2002C14.2155 8.91904 14.2329 8.8331 14.248 8.74219C14.3504 8.12818 14.4327 7.33825 14.3779 6.57129C14.3221 5.78986 14.1317 5.14451 13.792 4.71191C13.491 4.32889 12.9862 4 12 4Z" fill="black"/>
</svg>
