<svg width="16" height="16" viewBox="0 0 16 16" fill="none" xmlns="http://www.w3.org/2000/svg">
<path d="M8 2C11.3137 2 14 4.68629 14 8C14 11.3137 11.3137 14 8 14C4.68629 14 2 11.3137 2 8C2 4.68629 4.68629 2 8 2Z" fill="#FF3B3E"/>
<path d="M8.66732 4.3335L8.5116 9.60521H7.5189L7.33398 4.3335H8.66732ZM8.02498 10.4901C8.37535 10.4901 8.61866 10.7255 8.61866 11.0738C8.61866 11.4221 8.37535 11.6668 8.02498 11.6668C7.66488 11.6668 7.41184 11.4221 7.41184 11.0738C7.41184 10.7255 7.66488 10.4901 8.02498 10.4901Z" fill="#FEFEFE"/>
</svg>
