<svg width="1012" height="254" viewBox="0 0 1012 254" fill="none" xmlns="http://www.w3.org/2000/svg">
<path d="M635.179 95.3168C658.824 99.2258 670.769 116.084 670.769 141.492C670.769 174.719 648.342 191.333 598.857 194.02C582.525 194.753 566.193 194.997 549.86 194.997C534.746 194.753 526.458 186.202 526.215 170.81C525.483 122.191 525.727 73.3284 526.215 24.7097C526.458 9.31786 534.503 0.766834 549.616 0.278196C565.217 0.0338837 580.819 0.0338866 596.42 0.766837C643.467 3.20999 665.894 21.2893 665.894 56.715C665.894 78.459 656.387 91.6521 635.179 95.3168ZM580.575 116.328C580.575 127.811 580.819 139.049 581.306 150.532C585.206 150.776 589.351 150.776 593.251 150.532C607.146 149.555 615.921 144.424 615.921 132.697C615.921 121.947 607.146 116.328 593.738 116.328H580.575ZM580.575 74.7943H593.738C604.708 74.7943 611.046 70.3967 611.046 60.6241C611.046 49.6299 604.464 44.9879 590.813 44.9879H581.306L580.575 74.7943Z" fill="#A16DFF"/>
<path d="M399.145 103.871C399.145 91.5751 393.342 82.2306 380.768 82.2306C370.855 82.2306 364.326 89.8537 361.666 103.871H399.145ZM308.229 123.297C308.229 63.0497 342.081 40.9178 380.768 40.9178C422.357 40.9178 448.713 70.6728 448.713 107.313V113.707C448.23 131.658 436.623 140.757 418.972 140.757H362.392C366.26 152.806 374.965 158.462 388.022 158.462C397.452 158.462 407.608 156.495 417.521 152.315C432.755 145.921 443.394 155.266 444.119 170.758C444.603 181.332 437.349 186.496 429.853 189.693C418.005 195.103 402.288 199.529 383.67 199.529C343.532 199.529 308.229 182.07 308.229 123.297Z" fill="#A16DFF"/>
<path d="M238.221 61.1448C238.464 47.254 249.851 40.9178 263.903 40.9178C279.167 40.9178 289.827 48.4725 289.585 62.1196C288.858 104.279 289.101 149.364 290.07 189.817C291.281 241.725 258.331 253.91 219.808 253.91C197.276 253.91 179.831 249.767 166.021 243.187C157.057 238.801 154.15 232.708 154.15 224.423C154.15 213.213 163.356 203.465 173.532 203.465C176.924 203.465 180.558 204.439 182.981 205.658C193.157 210.288 204.786 212.969 219.081 212.969C231.922 212.969 238.706 205.414 238.221 189.817C238.221 187.381 238.221 184.944 237.979 182.75C231.195 189.818 217.385 197.128 199.699 197.128C167.233 197.128 158.026 183.725 156.815 149.12C155.846 122.069 155.603 89.9012 156.088 61.6322C156.33 47.254 167.96 40.9178 182.012 40.9178C197.518 40.9178 208.178 48.7162 207.936 62.607C207.452 90.3886 207.694 121.826 208.663 148.632C208.905 156.187 212.055 161.061 220.293 161.061C226.35 161.061 232.164 158.624 237.495 152.775C237.01 122.313 237.252 94.7752 238.221 61.1448Z" fill="#A16DFF"/>
<path d="M106.076 95.3168C128.983 99.2258 140.554 116.084 140.554 141.492C140.554 174.719 118.829 191.333 70.89 194.02C55.068 194.753 39.2459 194.997 23.4238 194.997C8.78251 194.753 0.753404 186.202 0.517254 170.81C-0.191196 122.191 0.0449535 73.3284 0.517254 24.7097C0.753404 9.31786 8.54636 0.766834 23.1877 0.278196C38.3013 0.0338837 53.4149 0.0338866 68.5285 0.766837C114.106 3.20999 135.831 21.2893 135.831 56.715C135.831 78.459 126.621 91.6521 106.076 95.3168ZM53.1788 116.328C53.1788 127.811 53.4149 139.049 53.8872 150.532C57.6656 150.776 61.6802 150.776 65.4586 150.532C78.9191 149.555 87.4205 144.424 87.4205 132.697C87.4205 121.947 78.9191 116.328 65.9309 116.328H53.1788ZM53.1788 74.7943H65.9309C76.5576 74.7943 82.6975 70.3967 82.6975 60.6241C82.6975 49.6299 76.3215 44.9879 63.0971 44.9879H53.8872L53.1788 74.7943Z" fill="#A16DFF"/>
<path d="M940.185 35.8802C961.002 34.9216 984.659 41.2366 997.092 64.2552C1009.94 88.0358 1013.61 109.138 1009.41 128.797C1005.28 148.125 993.879 164.384 979.991 179.23C970.909 188.938 957.852 193.822 944.638 195.303C931.303 196.797 916.737 194.982 903.237 190.158C876.412 180.572 851.044 157.787 851.041 122.055C851.04 103.93 858.619 88.208 866.311 76.9017C874.027 65.5618 882.543 57.6399 886.113 54.7777C898.469 44.8737 919.545 36.831 940.185 35.8802Z" fill="#8157CC"/>
<path d="M729.485 63.2761C747.782 57.3591 771.917 56.1718 793.983 72.2683C814.758 87.4241 828.135 103.567 833.304 120.973C838.61 138.843 834.697 156.068 824.996 171.736C819.967 179.859 811.59 185.276 802.965 188.749C794.17 192.289 783.986 194.279 773.756 194.81C753.83 195.845 730.582 191.458 715.615 178.406C707.352 171.199 696.665 156.221 690.354 140.04C684.291 124.493 680.595 103.267 693.273 86.8279C694.693 84.5718 696.536 82.5583 698.233 80.9548C700.454 78.8559 703.167 76.6914 706.233 74.6042C712.356 70.4352 720.349 66.2311 729.485 63.2761Z" fill="#8157CC"/>
</svg>
